<?xml version="1.0" encoding="utf-8"?>
<!-- Generator: Adobe Illustrator 24.0.0, SVG Export Plug-In . SVG Version: 6.00 Build 0)  -->
<svg version="1.1" id="Capa_1" xmlns="http://www.w3.org/2000/svg" xmlns:xlink="http://www.w3.org/1999/xlink" x="0px" y="0px"
	 viewBox="0 0 24 24" style="enable-background:new 0 0 24 24;" xml:space="preserve">
<style type="text/css">
	.st0{fill:#EFE0C0;}
</style>
<g id="Grupo_642" transform="translate(-395.826 -597.817)">
	<path id="Trazado_3684" class="st0" d="M413.3,599.4c2.6,0,4.7,2.1,4.7,4.6v11.6c0,2.6-2.1,4.7-4.7,4.7h-10.9
		c-2.6,0-4.7-2.1-4.7-4.7V604c0-2.6,2.1-4.6,4.7-4.6H413.3 M413.3,597.8h-10.9c-3.4,0-6.2,2.8-6.2,6.2v11.6c0,3.4,2.8,6.2,6.2,6.2
		h10.9c3.4,0,6.2-2.8,6.2-6.2V604C419.5,600.6,416.7,597.8,413.3,597.8z"/>
	<path id="Trazado_3685" class="st0" d="M407.9,604.8c2.7,0,4.9,2.2,4.9,4.9s-2.2,4.9-4.9,4.9c-2.7,0-4.9-2.2-4.9-4.9
		S405.2,604.8,407.9,604.8L407.9,604.8 M407.9,603.3c-3.6,0-6.4,2.9-6.4,6.4c0,3.6,2.9,6.4,6.4,6.4c3.6,0,6.4-2.9,6.4-6.4
		S411.4,603.3,407.9,603.3C407.9,603.3,407.9,603.3,407.9,603.3z"/>
	<circle id="Elipse_1" class="st0" cx="414.4" cy="603.2" r="1.5"/>
</g>
</svg>
