<?xml version="1.0" encoding="utf-8"?>
<!-- Generator: Adobe Illustrator 24.0.0, SVG Export Plug-In . SVG Version: 6.00 Build 0)  -->
<svg version="1.1" id="Capa_1" xmlns="http://www.w3.org/2000/svg" xmlns:xlink="http://www.w3.org/1999/xlink" x="0px" y="0px"
	 viewBox="0 0 24 24" style="enable-background:new 0 0 24 24;" xml:space="preserve">
<style type="text/css">
	.st0{fill:#EFE0C0;}
</style>
<g id="Grupo_20" transform="translate(250.221 -1305.659)">
	<path id="Trazado_50" class="st0" d="M-238.1,1305.8c6.4,0,11.6,5.2,11.6,11.6c0,6.4-5.2,11.6-11.6,11.6c-2,0-3.9-0.5-5.6-1.4
		l-6.3,1.8l1.9-6c-1-1.9-1.6-3.9-1.7-6C-249.7,1311-244.5,1305.8-238.1,1305.8C-238.1,1305.8-238.1,1305.8-238.1,1305.8z
		 M-228.3,1317.5c0-5.4-4.4-9.8-9.8-9.8s-9.8,4.4-9.8,9.8c0.1,2.1,0.7,4.1,1.9,5.8l-1.2,3.5l3.7-1.1c1.6,1,3.5,1.6,5.4,1.6
		C-232.7,1327.2-228.3,1322.9-228.3,1317.5C-228.3,1317.5-228.3,1317.5-228.3,1317.5L-228.3,1317.5z"/>
	<path id="Trazado_51" class="st0" d="M-242.5,1312.6c0.1-0.1,0.3-0.2,0.5-0.2h0.9c0.2,0,0.3,0.1,0.4,0.3c0.1,0.3,0.9,2.1,0.9,2.2
		c0.1,0.3,0.1,0.6,0,0.8c-0.2,0.3-0.7,0.9-0.7,0.9c-0.1,0.1-0.1,0.3,0,0.5c0.4,0.7,1,1.4,1.6,1.9c0.7,0.6,1.4,1.1,2.3,1.4
		c0.5,0.2,0.6-0.1,0.8-0.3c0.2-0.2,0.8-1,0.8-1c0.1-0.2,0.4-0.2,0.6-0.1c0.4,0.2,2.3,1.1,2.3,1.1c0.1,0,0.2,0.2,0.2,0.3
		c0.1,0.6-0.1,1.3-0.5,1.8c-0.8,0.7-1.8,1-2.9,0.9c-1.6-0.4-3.2-1.1-4.5-2.2c-1.3-1.1-2.4-2.5-3.2-4c-0.3-0.6-0.5-1.3-0.4-2
		C-243.6,1314-243.2,1313.2-242.5,1312.6z"/>
</g>
</svg>
