<?xml version="1.0" encoding="utf-8"?>
<!-- Generator: Adobe Illustrator 25.4.1, SVG Export Plug-In . SVG Version: 6.00 Build 0)  -->
<svg version="1.1" xmlns="http://www.w3.org/2000/svg" xmlns:xlink="http://www.w3.org/1999/xlink" x="0px" y="0px"
	 viewBox="0 0 199.3 43.6" style="enable-background:new 0 0 199.3 43.6;" xml:space="preserve">
<style type="text/css">
	.st0{display:none;}
	.st1{display:inline;}
	.st2{fill:#EFE0C0;}
	.st3{fill:url(#SVGID_1_);}
	.st4{fill:url(#SVGID_00000124125035231996443890000003629217509713871801_);}
	.st5{fill:url(#SVGID_00000147222586066330138200000011534938292395581085_);}
	.st6{fill:url(#SVGID_00000090287191999568397950000003425941177015684508_);}
	.st7{fill:url(#SVGID_00000137852477174928749020000014781239212718006949_);}
	.st8{fill:url(#SVGID_00000134969414977540682630000010686690384082957440_);}
	.st9{fill:url(#SVGID_00000026145589461082866840000006917911305158105244_);}
	.st10{fill:url(#SVGID_00000117678492955045804580000016789602793442075267_);}
	.st11{fill:url(#SVGID_00000120559931296034715690000017338829058524614534_);}
	.st12{fill:url(#SVGID_00000026843317724013733950000015645350642983317911_);}
	.st13{fill:url(#SVGID_00000181790700533570854510000006457960651881087645_);}
	.st14{fill:url(#SVGID_00000057865996423772776020000009635700447661761701_);}
	.st15{fill:url(#SVGID_00000023273437736583869410000001276776625561737909_);}
	.st16{opacity:0.4;}
	.st17{fill:#FFFFFF;}
</style>
<g id="Capa_2" class="st0">
	<rect y="-1.9" class="st1" width="199.3" height="47.5"/>
</g>
<g id="Capa_1">
	<g id="surface1">
		<g>
			<path class="st2" d="M50.7,14.1l0.1,1.7c-0.9,0.6-1.8,0.8-2.9,0.7c-2.1-0.1-4-1.9-3.9-4.2c0.1-2,1.7-3.8,3.9-3.9
				c1-0.1,2,0.1,2.9,0.7l-0.1,1.7h-0.2c-0.6-1.4-1.2-2.3-2.4-2.3c-1.2,0-1.8,0.8-1.8,3.9s0.7,3.9,1.8,3.9c1.2,0,2.2-1,2.4-2.3
				L50.7,14.1z"/>
			<path class="st2" d="M60.3,14v2.4H54v-0.3c0.4,0,0.8-0.4,0.8-1.2V9.7c0.1-0.4-0.2-0.9-0.7-1H54V8.3h3.6v0.2
				c-0.4-0.1-0.9,0.2-1,0.8c0,0.1,0,0.1,0,0.2v6.5H57C56.9,16.1,59.9,16.1,60.3,14z"/>
			<path class="st2" d="M71.2,8.8c-0.9,0-1.6,0.7-1.7,1.6v0.1v3.3c0.1,1.3-0.9,2.7-2.2,2.8c-0.1,0-0.3,0-0.4,0
				c-1.4,0.1-2.8-1-2.8-2.6c0-0.1,0-0.2,0-0.3V9.8c0.1-0.4-0.2-0.9-0.7-1h-0.1V8.4h3.6v0.2c-0.4-0.1-0.9,0.2-1,0.8
				c0,0.1,0,0.1,0,0.2v4c-0.1,1,0.7,1.9,1.7,2c0.1,0,0.1,0,0.2,0c1,0,1.9-0.9,1.8-2c0,0,0,0,0-0.1v-3.3c0,0,0-1.7-1.4-1.7V8.3h3.3
				L71.2,8.8z"/>
			<path class="st2" d="M80.2,14.4c0,1.9-1.6,1.9-3.6,1.9h-2.8v-0.1c0.4,0,0.7-0.7,0.7-1.3v-4.8c0-0.7-0.1-1.4-0.7-1.4V8.4h2.8
				c1.6,0,3-0.1,3,1.9c0,1.7-1.7,1.9-1.9,1.9C78.6,12.3,80.2,12.4,80.2,14.4z M76.3,8.8v3.6h0.4c0.6,0,1.4-0.2,1.4-1.9
				s-0.9-1.7-1.4-1.7H76.3L76.3,8.8z M78.7,14.3c0-1.7-1.1-1.8-1.8-1.8h-0.4v3.6h0.4C77.7,16.1,78.7,16.2,78.7,14.3z"/>
		</g>
		<g>
			<path class="st2" d="M63.9,34.5v0.3h-6.2v-0.3c0.9,0,1.4-0.7,1.4-2.1v-11L53.7,35h-0.3l-5.8-12.3v7c0,0,0,4.9,2.9,4.9v0.3h-6.2
				v-0.3c3.1,0,3.1-4.9,3.1-4.9v-7.5c-0.4-0.9-1.3-1.4-2.2-1.3v-0.3h5.2l5,10.4l4.1-10.4H64v0.3c-0.9,0-1.6,0.6-1.6,1.8v9.8
				C61.9,33.4,62.8,34.4,63.9,34.5C63.8,34.5,63.9,34.5,63.9,34.5z"/>
			<path class="st2" d="M83.2,27.7c0,4.1-2.7,7.3-7,7.3c-4.6,0-7-3.2-7-7.3s2.7-7.5,7-7.5C80.8,20.2,83.2,23.7,83.2,27.7z
				 M79.8,27.7c0-5.6-1.1-7.2-3.6-7.2s-3.6,1.6-3.6,7.2s1.1,7,3.6,7S79.8,33.4,79.8,27.7z"/>
			<path class="st2" d="M105.2,20.4v0.3c-3.1,0-3.1,4.9-3.1,4.9v9.2H101l-9-11.3v6c0,0,0,4.9,2.9,4.9v0.3h-6.2v-0.3
				c3.1,0,3.1-4.9,3.1-4.9v-6.3l-0.8-1c-1.3-1.6-1.9-1.3-2.3-1.4v-0.3h5l8.3,10.2v-5c0,0,0-4.9-2.9-4.9v-0.3H105.2z"/>
			<path class="st2" d="M123.3,34.5v0.3h-5.9v-0.3c1.6,0,0.6-2.1,0.6-2.1l-0.6-1.4h-4.9c0,0-1.2,3.9,1.9,3.7V35h-5v-0.3
				c0.6,0,1,0.1,3.1-4.8l3.6-9.3h0.3c5,12.1,5.2,12.7,5.2,12.7C122.3,34.6,122.9,34.5,123.3,34.5z M117.3,30.5l-2.3-6l-2.2,6H117.3z
				"/>
			<path class="st2" d="M141.7,29.2v0.3c-1.1,0-1.3,0.3-1.3,4.8c-1.7,0.6-3.6,0.9-5.3,0.9c-4.1-0.1-7.2-3.6-7.2-7.7
				c0.1-4,3.3-7.2,7.2-7.3c1.8-0.1,3.7,0.2,5.2,1.1l-0.1,3.6h-0.7c-0.6-3.2-1.9-4.2-4.4-4.2c-2.3,0-3.4,1.3-3.4,7.1
				c0,5.7,1.1,7.1,3.4,7.1c2.3,0,2.8-0.3,2.8-2.4c0-2.9-0.6-2.9-1.7-2.9v-0.3L141.7,29.2z"/>
			<path class="st2" d="M158.4,23.3v8.8c0,1.7-0.1,2.1,0.9,2.4v0.3h-4.2v-0.3c0.6-0.2,0.4-0.8,0.4-2.4v-3.8h-5v3.9
				c0,1.6,0,2.1,0.6,2.4V35h-4.3v-0.3c1.1-0.3,0.9-0.8,0.9-2.4v-8.8c0-1.6,0.1-2.4-0.9-2.7v-0.3h4.3v0.3c-0.6,0.2-0.6,1-0.6,2.7v4.4
				h5v-4.4c0-1.6,0.1-2.4-0.4-2.7v-0.3h4.3v0.3C158.4,21,158.4,21.8,158.4,23.3z"/>
			<path class="st2" d="M178.1,34.5v0.3h-5.9v-0.3c1.6,0,0.6-2.1,0.6-2.1l-0.7-1.4h-4.9c0,0-1.2,3.9,1.9,3.7V35h-5v-0.3
				c0.6,0,1.1,0.1,3.1-4.8l3.6-9.3h0.3c5,12.1,5.2,12.7,5.2,12.7C177,34.6,177.6,34.5,178.1,34.5z M172,30.5l-2.3-6l-2.2,6H172z"/>
			<path class="st2" d="M199.3,20.4v0.3c-3.1,0-3.1,4.9-3.1,4.9v9.2h-1.1l-9-11.3v6c0,0,0,4.9,2.9,4.9v0.3h-6.2v-0.3
				c3.1,0,3.1-4.9,3.1-4.9v-6.3l-0.8-1c-1.3-1.6-1.9-1.3-2.3-1.4v-0.3h5l8.3,10.2v-5c0,0,0-4.9-2.9-4.9v-0.3H199.3z"/>
		</g>
	</g>
	<g>
		
			<linearGradient id="SVGID_1_" gradientUnits="userSpaceOnUse" x1="-1109.5378" y1="-9.6901" x2="-1103.403" y2="-9.6901" gradientTransform="matrix(5.153 0 0 -4.4309 5715.2905 -17.0772)">
			<stop  offset="0" style="stop-color:#592F1E"/>
			<stop  offset="0.331" style="stop-color:#EABE78"/>
			<stop  offset="0.765" style="stop-color:#9D5923"/>
			<stop  offset="1" style="stop-color:#B5823B"/>
		</linearGradient>
		<path class="st3" d="M14.6,23.4h-0.3c0,1.1-0.2,4.6-2.9,4.6v0.3h5.7V28C14.7,28,14.6,24.6,14.6,23.4z"/>
		
			<linearGradient id="SVGID_00000070094546360569830850000018374698413747928503_" gradientUnits="userSpaceOnUse" x1="-1109.5378" y1="-8.7256" x2="-1103.403" y2="-8.7256" gradientTransform="matrix(5.153 0 0 -4.4309 5715.2905 -17.0772)">
			<stop  offset="0" style="stop-color:#592F1E"/>
			<stop  offset="0.331" style="stop-color:#EABE78"/>
			<stop  offset="0.765" style="stop-color:#9D5923"/>
			<stop  offset="1" style="stop-color:#B5823B"/>
		</linearGradient>
		<path style="fill:url(#SVGID_00000070094546360569830850000018374698413747928503_);" d="M16.5,14.6h-4.2V15
			c0.9,0,1.7,0.4,2.1,1.3l5.7,12.2h0.3l1.1-3.1l-1.4-3.3L16.5,14.6z"/>
		
			<linearGradient id="SVGID_00000163048776291682373610000005545137202272913830_" gradientUnits="userSpaceOnUse" x1="-1109.5378" y1="-8.7131" x2="-1103.403" y2="-8.7131" gradientTransform="matrix(5.153 0 0 -4.4309 5715.2905 -17.0772)">
			<stop  offset="0" style="stop-color:#592F1E"/>
			<stop  offset="0.331" style="stop-color:#EABE78"/>
			<stop  offset="0.765" style="stop-color:#9D5923"/>
			<stop  offset="1" style="stop-color:#B5823B"/>
		</linearGradient>
		<path style="fill:url(#SVGID_00000163048776291682373610000005545137202272913830_);" d="M29.2,15v-0.3h-5.3V15
			c0.8,0,1.3,0.6,1.3,2v9.1c0,1.4-0.6,2-1.3,2v0.3h5.3v-0.3c-0.8,0-1.6-0.6-1.6-2v-9C27.5,15.6,28.4,15,29.2,15z"/>
		
			<linearGradient id="SVGID_00000052085015357129931500000004572080778286933421_" gradientUnits="userSpaceOnUse" x1="-1109.5378" y1="-7.2224" x2="-1103.403" y2="-7.2224" gradientTransform="matrix(5.153 0 0 -4.4309 5715.2905 -17.0772)">
			<stop  offset="0" style="stop-color:#592F1E"/>
			<stop  offset="0.331" style="stop-color:#EABE78"/>
			<stop  offset="0.765" style="stop-color:#9D5923"/>
			<stop  offset="1" style="stop-color:#B5823B"/>
		</linearGradient>
		<path style="fill:url(#SVGID_00000052085015357129931500000004572080778286933421_);" d="M4.2,16.6l1.1,0.4c0.2,0.1,0.4,0,0.4-0.2
			l1.3-3.2c0.1-0.2,0-0.4-0.2-0.4l-1.1-0.4c-0.2-0.1-0.4,0-0.4,0.2L4,16.2C4,16.3,4,16.5,4.2,16.6z M5,16.2l1.1-2.7
			c0.1-0.2,0.3-0.3,0.4-0.2h0.1c0.2,0.1,0.3,0.3,0.2,0.4l-1.1,2.7c-0.1,0.2-0.3,0.3-0.4,0.2H5.2C5,16.6,4.9,16.4,5,16.2z"/>
		
			<linearGradient id="SVGID_00000160166090235206596530000015689909930695604625_" gradientUnits="userSpaceOnUse" x1="-1109.5378" y1="-5.8946" x2="-1103.403" y2="-5.8946" gradientTransform="matrix(5.153 0 0 -4.4309 5715.2905 -17.0772)">
			<stop  offset="0" style="stop-color:#592F1E"/>
			<stop  offset="0.331" style="stop-color:#EABE78"/>
			<stop  offset="0.765" style="stop-color:#9D5923"/>
			<stop  offset="1" style="stop-color:#B5823B"/>
		</linearGradient>
		<path style="fill:url(#SVGID_00000160166090235206596530000015689909930695604625_);" d="M8.6,10.9C8.7,11,9,11.1,9.2,11L12,8.9
			c0.1-0.1,0.2-0.3,0.1-0.6l-0.9-1.1c-0.1-0.1-0.3-0.2-0.6-0.1L7.9,9.2c0,0.2-0.1,0.4,0,0.7L8.6,10.9z M8.6,9.9l2.2-1.7
			c0.1-0.1,0.4-0.1,0.6,0.1l0.1,0c0.1,0.1,0.1,0.4-0.1,0.6l-2.2,1.7c-0.1,0.1-0.4,0.1-0.6-0.1l-0.1-0.1C8.5,10.2,8.5,10,8.6,9.9z"/>
		
			<linearGradient id="SVGID_00000102534949262163435120000000420077419722637468_" gradientUnits="userSpaceOnUse" x1="-1109.5378" y1="-5.2934" x2="-1103.403" y2="-5.2934" gradientTransform="matrix(5.153 0 0 -4.4309 5715.2905 -17.0772)">
			<stop  offset="0" style="stop-color:#592F1E"/>
			<stop  offset="0.331" style="stop-color:#EABE78"/>
			<stop  offset="0.765" style="stop-color:#9D5923"/>
			<stop  offset="1" style="stop-color:#B5823B"/>
		</linearGradient>
		<path style="fill:url(#SVGID_00000102534949262163435120000000420077419722637468_);" d="M15.6,7.3h3.6c0.2,0,0.3-0.1,0.3-0.3V5.8
			c0-0.2-0.1-0.3-0.3-0.3h-3.6c-0.2,0-0.3,0.1-0.3,0.3V7C15.2,7.1,15.4,7.3,15.6,7.3z M15.5,6.5c0-0.2,0.2-0.3,0.3-0.3h2.9
			c0.2,0,0.3,0.2,0.3,0.3v0.1c0,0.2-0.2,0.3-0.3,0.3h-2.9C15.7,7.1,15.5,6.9,15.5,6.5z"/>
		
			<linearGradient id="SVGID_00000140013473003701721880000001111282061832693376_" gradientUnits="userSpaceOnUse" x1="-1109.5378" y1="-5.6441" x2="-1103.403" y2="-5.6441" gradientTransform="matrix(5.153 0 0 -4.4309 5715.2905 -17.0772)">
			<stop  offset="0" style="stop-color:#592F1E"/>
			<stop  offset="0.331" style="stop-color:#EABE78"/>
			<stop  offset="0.765" style="stop-color:#9D5923"/>
			<stop  offset="1" style="stop-color:#B5823B"/>
		</linearGradient>
		<path style="fill:url(#SVGID_00000140013473003701721880000001111282061832693376_);" d="M23.6,8.1l3.1,1.6c0.2,0.1,0.4,0,0.6-0.2
			l0.6-1.1c0.1-0.2,0-0.4-0.2-0.6l-3.1-1.6c-0.2-0.1-0.4,0-0.6,0.2l-0.6,1.1C23.4,7.8,23.5,8,23.6,8.1z M23.8,7.5
			c0.1-0.3,0.3-0.3,0.6-0.3l2.7,1.1c0.2,0.1,0.2,0.3,0.2,0.6V9c-0.1,0.2-0.3,0.2-0.6,0.2l-2.6-1.1C23.8,7.9,23.7,7.7,23.8,7.5z"/>
		
			<linearGradient id="SVGID_00000134235658184788553000000009134908104232699839_" gradientUnits="userSpaceOnUse" x1="-1109.5378" y1="-10.3164" x2="-1103.403" y2="-10.3164" gradientTransform="matrix(5.153 0 0 -4.4309 5715.2905 -17.0772)">
			<stop  offset="0" style="stop-color:#592F1E"/>
			<stop  offset="0.331" style="stop-color:#EABE78"/>
			<stop  offset="0.765" style="stop-color:#9D5923"/>
			<stop  offset="1" style="stop-color:#B5823B"/>
		</linearGradient>
		<path style="fill:url(#SVGID_00000134235658184788553000000009134908104232699839_);" d="M4,27.4l1.3,3.2c0.1,0.2,0.3,0.3,0.4,0.2
			l1.1-0.4c0.2-0.1,0.3-0.3,0.2-0.4l-1.2-3.3c-0.1-0.2-0.3-0.3-0.4-0.2l-1.1,0.4C4,27,4,27.2,4,27.4z M5.1,26.9
			c0.3-0.1,0.6,0,0.6,0.1l1.1,2.7c0.1,0.2,0,0.4-0.2,0.4H6.4c-0.2,0.1-0.4,0-0.4-0.2l-1.1-2.7C4.9,27.1,5,26.9,5.1,26.9z"/>
		
			<linearGradient id="SVGID_00000100360563060442174460000014709508663291223705_" gradientUnits="userSpaceOnUse" x1="-1109.5378" y1="-11.6317" x2="-1103.403" y2="-11.6317" gradientTransform="matrix(5.153 0 0 -4.4309 5715.2905 -17.0772)">
			<stop  offset="0" style="stop-color:#592F1E"/>
			<stop  offset="0.331" style="stop-color:#EABE78"/>
			<stop  offset="0.765" style="stop-color:#9D5923"/>
			<stop  offset="1" style="stop-color:#B5823B"/>
		</linearGradient>
		<path style="fill:url(#SVGID_00000100360563060442174460000014709508663291223705_);" d="M7.9,33.6c-0.1,0.1-0.1,0.4,0.1,0.6
			l2.8,2.1c0.1,0.1,0.4,0.1,0.6-0.1l0.8-1c0.1-0.1,0.1-0.4-0.1-0.6l-2.9-2c-0.1-0.1-0.4-0.1-0.6,0.1L7.9,33.6z M8.6,33.2
			C8.9,33,9.1,33,9.2,33.1l2.2,1.7c0.1,0.1,0.2,0.3,0.1,0.6l-0.1,0.1c-0.1,0.1-0.3,0.2-0.6,0.1l-2.2-1.7C8.5,33.5,8.5,33.3,8.6,33.2
			z"/>
		
			<linearGradient id="SVGID_00000154421021132236779690000003126435459900695691_" gradientUnits="userSpaceOnUse" x1="-1109.5378" y1="-12.2547" x2="-1103.403" y2="-12.2547" gradientTransform="matrix(5.153 0 0 -4.4309 5715.2905 -17.0772)">
			<stop  offset="0" style="stop-color:#592F1E"/>
			<stop  offset="0.331" style="stop-color:#EABE78"/>
			<stop  offset="0.765" style="stop-color:#9D5923"/>
			<stop  offset="1" style="stop-color:#B5823B"/>
		</linearGradient>
		<path style="fill:url(#SVGID_00000154421021132236779690000003126435459900695691_);" d="M15.2,36.6v1.2c0,0.2,0.2,0.3,0.3,0.3
			h3.6c0.2,0,0.3-0.2,0.3-0.3v-1.2c0-0.2-0.2-0.3-0.3-0.3h-3.6C15.4,36.2,15.2,36.4,15.2,36.6z M15.5,36.8c0-0.2,0.1-0.3,0.3-0.3
			h2.9c0.2,0,0.3,0.1,0.3,0.3V37c0,0.2-0.1,0.3-0.3,0.3h-2.9C15.7,37.3,15.5,37.2,15.5,36.8z"/>
		
			<linearGradient id="SVGID_00000030463773482081757860000009976303022467819406_" gradientUnits="userSpaceOnUse" x1="-1109.5378" y1="-11.8697" x2="-1103.403" y2="-11.8697" gradientTransform="matrix(5.153 0 0 -4.4309 5715.2905 -17.0772)">
			<stop  offset="0" style="stop-color:#592F1E"/>
			<stop  offset="0.331" style="stop-color:#EABE78"/>
			<stop  offset="0.765" style="stop-color:#9D5923"/>
			<stop  offset="1" style="stop-color:#B5823B"/>
		</linearGradient>
		<path style="fill:url(#SVGID_00000030463773482081757860000009976303022467819406_);" d="M23.5,35.8l0.6,1.1
			c0.1,0.2,0.3,0.2,0.6,0.2l3.2-1.4c0.2-0.1,0.2-0.3,0.2-0.6l-0.6-1.1c-0.1-0.2-0.3-0.2-0.6-0.2l-3.2,1.4
			C23.5,35.5,23.4,35.7,23.5,35.8z M24.1,35.5l2.6-1.1c0.2-0.1,0.4,0,0.6,0.2v0.1c0.1,0.2,0,0.4-0.2,0.6l-2.7,1.1
			c-0.2,0.1-0.4,0-0.6-0.2v-0.1C23.7,35.8,23.8,35.6,24.1,35.5z"/>
		
			<linearGradient id="SVGID_00000018206581226069706640000017939699074762623118_" gradientUnits="userSpaceOnUse" x1="-1109.5378" y1="-8.813" x2="-1103.403" y2="-8.813" gradientTransform="matrix(5.153 0 0 -4.4309 5715.2905 -17.0772)">
			<stop  offset="0" style="stop-color:#592F1E"/>
			<stop  offset="0.331" style="stop-color:#EABE78"/>
			<stop  offset="0.765" style="stop-color:#9D5923"/>
			<stop  offset="1" style="stop-color:#B5823B"/>
		</linearGradient>
		<path style="fill:url(#SVGID_00000018206581226069706640000017939699074762623118_);" d="M33.9,29c-0.2-0.4-0.8-0.6-1.1-0.3
			c0,0-0.1,0-0.1,0.1c-4.9,4-8.9,5.8-14.7,5.3c-2.7-0.2-8.4-2.1-10.2-9.5C7.6,23.5,8,24,8,21.8c0-2.1-0.3-1.7-0.1-2.8
			c1.8-7.4,7.5-9.3,10.2-9.5c5.9-0.4,9.8,1.3,14.7,5.3c0.3,0.3,0.9,0.2,1.2-0.1c0,0,0-0.1,0.1-0.1l1.7-2.3c0.3-0.4,0.2-1-0.2-1.2
			l-3.4-2.4c-0.3-0.2-0.8-0.2-1,0c-2.7-2.3-11.2-6-18.5-3.6C4.4,7.7,2.2,16.4,1.9,18.1c0,0.2-0.3,0.1-0.7,0.1
			c-0.2,0-0.4,0.1-0.6,0.3c-0.3,1.1-0.4,2.3-0.4,3.4s0.2,2.3,0.4,3.4c0,0.2,0.2,0.3,0.6,0.3s0.6-0.1,0.7,0.1
			C2.1,27.4,4.3,36.2,12.5,39c7.1,2.4,15.7-1.2,18.5-3.8c0.3,0.2,0.8,0.2,1,0l3.4-2.4c0.4-0.3,0.6-0.9,0.2-1.2L33.9,29z M7.3,21.9
			c0.1,0.6,0,1.1-0.1,1.7c-0.1,0.2-0.4,0.2-0.4,0c0-0.1,0-0.9,0-1.7c0-0.8,0-1.4,0-1.7c0-0.3,0.3-0.2,0.4,0
			C7.3,20.6,7.3,21.2,7.3,21.9z M30.9,9.3c0.2-0.2,0.6-0.3,0.9-0.1l3,2c0.2,0.2,0.3,0.6,0.1,0.9l-1.2,1.8c-0.2,0.2-0.6,0.3-0.9,0.1
			l-3-2c-0.2-0.2-0.3-0.6-0.1-0.9L30.9,9.3z M2.5,16.9c0.1-0.2,0.1-0.4,0.2-0.7c0.3-1.2,0.8-2.3,1.4-3.6c1.2-2.4,3.1-4.6,5.3-6
			C12.9,4.5,17.1,4,21,4.8c2,0.3,4,0.9,5.8,1.8C27.6,7,28.5,7.4,29.4,8c0.1,0.1,0.4,0.2,0.7,0.4c0.3,0.2,0.3,0.6,0.2,0.8
			c-0.3,0.6-0.9,1.2-1,1.4c-0.1,0.2-0.4,0.3-0.8,0.2c-1.3-0.6-7.3-3.7-13.3-1.6c-3.8,1.3-6.7,4.3-8,8.1c-0.6,1.4-0.2,1.7-1.6,1.3
			c-0.4-0.1-0.9-0.2-1.2-0.3C4,18.3,3.5,18.2,3.1,18C2.5,17.9,2.2,17.4,2.5,16.9C2.5,17,2.5,17,2.5,16.9z M1,24.7
			c-0.2-1-0.4-1.9-0.4-3c0-1,0.1-2,0.4-3c0.2-0.4,1.1-0.2,2,0c0.8,0.2,1.6,0.4,2.2,0.8c0.4,0.2,0.7,0.3,0.7,0.7c0,0.6,0,1,0,1.6
			s0,1,0,1.6c0,0.3-0.2,0.4-0.7,0.7c-0.7,0.3-1.4,0.7-2.2,0.8C2.1,25,1.2,25.2,1,24.7z M29.9,35.2c-0.3,0.2-0.6,0.3-0.7,0.4
			c-0.8,0.6-1.7,1-2.7,1.4c-1.8,0.9-3.8,1.4-5.8,1.8C17,39.5,12.6,39.1,9.4,37c-2.2-1.6-4.1-3.7-5.3-6c-0.6-1.1-1-2.3-1.4-3.6
			c0-0.3-0.1-0.6-0.1-0.8c-0.2-0.4,0-0.9,0.3-1c0.4-0.1,0.9-0.3,1.3-0.4S5,25,5.4,24.9c1.3-0.3,1-0.1,1.6,1.3c1.3,3.8,4.2,6.8,8,8.1
			c6,2,12-1,13.3-1.7c0.2-0.1,0.6,0,0.8,0.2c0.1,0.1,0.7,0.9,1,1.4C30.4,34.4,30.3,34.9,29.9,35.2z M34.8,32.4l-3,2
			c-0.2,0.2-0.7,0.1-0.9-0.1l-1.2-1.9c-0.2-0.2-0.1-0.7,0.1-0.9l3-2c0.2-0.2,0.7-0.1,0.9,0.1l1.2,1.8C35.2,31.9,35.1,32.2,34.8,32.4
			z"/>
		
			<linearGradient id="SVGID_00000011749974692565811220000015936004400185554623_" gradientUnits="userSpaceOnUse" x1="-1109.5378" y1="-8.7506" x2="-1103.403" y2="-8.7506" gradientTransform="matrix(5.153 0 0 -4.4309 5715.2905 -17.0772)">
			<stop  offset="0" style="stop-color:#592F1E"/>
			<stop  offset="0.331" style="stop-color:#EABE78"/>
			<stop  offset="0.765" style="stop-color:#9D5923"/>
			<stop  offset="1" style="stop-color:#B5823B"/>
		</linearGradient>
		<path style="fill:url(#SVGID_00000011749974692565811220000015936004400185554623_);" d="M5.3,20.6c0-0.2-0.1-0.4-0.4-0.4
			c-0.8-0.1-1.4-0.2-2.2-0.3c-0.7-0.1-0.8,0-0.9,0.7c0,0.3,0,0.8,0,1.1v1.1c0,0,0,0,0,0.1c0,0.7,0.2,0.8,0.9,0.7
			c0.8-0.1,1.4-0.2,2.2-0.3c0.2,0,0.3-0.1,0.3-0.3C5.3,22.2,5.3,21.4,5.3,20.6z M4.9,22.4c0,0.1-0.1,0.2-0.2,0.2
			c-0.3,0-0.8,0.1-1.1,0.1s-0.4,0-0.4-0.3v-0.6c0-0.2,0-0.3,0-0.6C3.1,21,3.2,21,3.5,21c0.3,0.1,0.8,0.1,1.1,0.1
			c0.1,0,0.2,0.1,0.2,0.2C4.9,21.5,4.9,22.1,4.9,22.4z"/>
	</g>
	<g class="st16">
		<path class="st17" d="M14.6,23.4h-0.3c0,1.1-0.2,4.6-2.9,4.6v0.3h5.7V28C14.7,28,14.6,24.6,14.6,23.4z"/>
		<path class="st17" d="M16.5,14.6h-4.2V15c0.9,0,1.7,0.4,2.1,1.3l5.7,12.2h0.3l1.1-3.1l-1.4-3.3L16.5,14.6z"/>
		<path class="st17" d="M29.2,15v-0.3h-5.3V15c0.8,0,1.3,0.6,1.3,2v9.1c0,1.4-0.6,2-1.3,2v0.3h5.3v-0.3c-0.8,0-1.6-0.6-1.6-2v-9
			C27.5,15.6,28.4,15,29.2,15z"/>
		<path class="st17" d="M4.2,16.6l1.1,0.4c0.2,0.1,0.4,0,0.4-0.2l1.3-3.2c0.1-0.2,0-0.4-0.2-0.4l-1.1-0.4c-0.2-0.1-0.4,0-0.4,0.2
			L4,16.2C4,16.3,4,16.5,4.2,16.6z M5,16.2l1.1-2.7c0.1-0.2,0.3-0.3,0.4-0.2h0.1c0.2,0.1,0.3,0.3,0.2,0.4l-1.1,2.7
			c-0.1,0.2-0.3,0.3-0.4,0.2H5.2C5,16.6,4.9,16.4,5,16.2z"/>
		<path class="st17" d="M8.6,10.9C8.7,11,9,11.1,9.2,11L12,8.9c0.1-0.1,0.2-0.3,0.1-0.6l-0.9-1.1c-0.1-0.1-0.3-0.2-0.6-0.1L7.9,9.2
			c0,0.2-0.1,0.4,0,0.7L8.6,10.9z M8.6,9.9l2.2-1.7c0.1-0.1,0.4-0.1,0.6,0.1l0.1,0c0.1,0.1,0.1,0.4-0.1,0.6l-2.2,1.7
			c-0.1,0.1-0.4,0.1-0.6-0.1l-0.1-0.1C8.5,10.2,8.5,10,8.6,9.9z"/>
		<path class="st17" d="M15.6,7.3h3.6c0.2,0,0.3-0.1,0.3-0.3V5.8c0-0.2-0.1-0.3-0.3-0.3h-3.6c-0.2,0-0.3,0.1-0.3,0.3V7
			C15.2,7.1,15.4,7.3,15.6,7.3z M15.5,6.5c0-0.2,0.2-0.3,0.3-0.3h2.9c0.2,0,0.3,0.2,0.3,0.3v0.1c0,0.2-0.2,0.3-0.3,0.3h-2.9
			C15.7,7.1,15.5,6.9,15.5,6.5z"/>
		<path class="st17" d="M23.6,8.1l3.1,1.6c0.2,0.1,0.4,0,0.6-0.2l0.6-1.1c0.1-0.2,0-0.4-0.2-0.6l-3.1-1.6c-0.2-0.1-0.4,0-0.6,0.2
			l-0.6,1.1C23.4,7.8,23.5,8,23.6,8.1z M23.8,7.5c0.1-0.3,0.3-0.3,0.6-0.3l2.7,1.1c0.2,0.1,0.2,0.3,0.2,0.6V9
			c-0.1,0.2-0.3,0.2-0.6,0.2l-2.6-1.1C23.8,7.9,23.7,7.7,23.8,7.5z"/>
		<path class="st17" d="M4,27.4l1.3,3.2c0.1,0.2,0.3,0.3,0.4,0.2l1.1-0.4c0.2-0.1,0.3-0.3,0.2-0.4l-1.2-3.3
			c-0.1-0.2-0.3-0.3-0.4-0.2l-1.1,0.4C4,27,4,27.2,4,27.4z M5.1,26.9c0.3-0.1,0.6,0,0.6,0.1l1.1,2.7c0.1,0.2,0,0.4-0.2,0.4H6.4
			c-0.2,0.1-0.4,0-0.4-0.2l-1.1-2.7C4.9,27.1,5,26.9,5.1,26.9z"/>
		<path class="st17" d="M7.9,33.6c-0.1,0.1-0.1,0.4,0.1,0.6l2.8,2.1c0.1,0.1,0.4,0.1,0.6-0.1l0.8-1c0.1-0.1,0.1-0.4-0.1-0.6l-2.9-2
			c-0.1-0.1-0.4-0.1-0.6,0.1L7.9,33.6z M8.6,33.2C8.9,33,9.1,33,9.2,33.1l2.2,1.7c0.1,0.1,0.2,0.3,0.1,0.6l-0.1,0.1
			c-0.1,0.1-0.3,0.2-0.6,0.1l-2.2-1.7C8.5,33.5,8.5,33.3,8.6,33.2z"/>
		<path class="st17" d="M15.2,36.6v1.2c0,0.2,0.2,0.3,0.3,0.3h3.6c0.2,0,0.3-0.2,0.3-0.3v-1.2c0-0.2-0.2-0.3-0.3-0.3h-3.6
			C15.4,36.2,15.2,36.4,15.2,36.6z M15.5,36.8c0-0.2,0.1-0.3,0.3-0.3h2.9c0.2,0,0.3,0.1,0.3,0.3V37c0,0.2-0.1,0.3-0.3,0.3h-2.9
			C15.7,37.3,15.5,37.2,15.5,36.8z"/>
		<path class="st17" d="M23.5,35.8l0.6,1.1c0.1,0.2,0.3,0.2,0.6,0.2l3.2-1.4c0.2-0.1,0.2-0.3,0.2-0.6l-0.6-1.1
			c-0.1-0.2-0.3-0.2-0.6-0.2l-3.2,1.4C23.5,35.5,23.4,35.7,23.5,35.8z M24.1,35.5l2.6-1.1c0.2-0.1,0.4,0,0.6,0.2v0.1
			c0.1,0.2,0,0.4-0.2,0.6l-2.7,1.1c-0.2,0.1-0.4,0-0.6-0.2v-0.1C23.7,35.8,23.8,35.6,24.1,35.5z"/>
		<path class="st17" d="M33.9,29c-0.2-0.4-0.8-0.6-1.1-0.3c0,0-0.1,0-0.1,0.1c-4.9,4-8.9,5.8-14.7,5.3c-2.7-0.2-8.4-2.1-10.2-9.5
			C7.6,23.5,8,24,8,21.8c0-2.1-0.3-1.7-0.1-2.8c1.8-7.4,7.5-9.3,10.2-9.5c5.9-0.4,9.8,1.3,14.7,5.3c0.3,0.3,0.9,0.2,1.2-0.1
			c0,0,0-0.1,0.1-0.1l1.7-2.3c0.3-0.4,0.2-1-0.2-1.2l-3.4-2.4c-0.3-0.2-0.8-0.2-1,0c-2.7-2.3-11.2-6-18.5-3.6
			C4.4,7.7,2.2,16.4,1.9,18.1c0,0.2-0.3,0.1-0.7,0.1c-0.2,0-0.4,0.1-0.6,0.3c-0.3,1.1-0.4,2.3-0.4,3.4s0.2,2.3,0.4,3.4
			c0,0.2,0.2,0.3,0.6,0.3s0.6-0.1,0.7,0.1C2.1,27.4,4.3,36.2,12.5,39c7.1,2.4,15.7-1.2,18.5-3.8c0.3,0.2,0.8,0.2,1,0l3.4-2.4
			c0.4-0.3,0.6-0.9,0.2-1.2L33.9,29z M7.3,21.9c0.1,0.6,0,1.1-0.1,1.7c-0.1,0.2-0.4,0.2-0.4,0c0-0.1,0-0.9,0-1.7c0-0.8,0-1.4,0-1.7
			c0-0.3,0.3-0.2,0.4,0C7.3,20.6,7.3,21.2,7.3,21.9z M30.9,9.3c0.2-0.2,0.6-0.3,0.9-0.1l3,2c0.2,0.2,0.3,0.6,0.1,0.9l-1.2,1.8
			c-0.2,0.2-0.6,0.3-0.9,0.1l-3-2c-0.2-0.2-0.3-0.6-0.1-0.9L30.9,9.3z M2.5,16.9c0.1-0.2,0.1-0.4,0.2-0.7c0.3-1.2,0.8-2.3,1.4-3.6
			c1.2-2.4,3.1-4.6,5.3-6C12.9,4.5,17.1,4,21,4.8c2,0.3,4,0.9,5.8,1.8C27.6,7,28.5,7.4,29.4,8c0.1,0.1,0.4,0.2,0.7,0.4
			c0.3,0.2,0.3,0.6,0.2,0.8c-0.3,0.6-0.9,1.2-1,1.4c-0.1,0.2-0.4,0.3-0.8,0.2c-1.3-0.6-7.3-3.7-13.3-1.6c-3.8,1.3-6.7,4.3-8,8.1
			c-0.6,1.4-0.2,1.7-1.6,1.3c-0.4-0.1-0.9-0.2-1.2-0.3C4,18.3,3.5,18.2,3.1,18C2.5,17.9,2.2,17.4,2.5,16.9C2.5,17,2.5,17,2.5,16.9z
			 M1,24.7c-0.2-1-0.4-1.9-0.4-3c0-1,0.1-2,0.4-3c0.2-0.4,1.1-0.2,2,0c0.8,0.2,1.6,0.4,2.2,0.8c0.4,0.2,0.7,0.3,0.7,0.7
			c0,0.6,0,1,0,1.6s0,1,0,1.6c0,0.3-0.2,0.4-0.7,0.7c-0.7,0.3-1.4,0.7-2.2,0.8C2.1,25,1.2,25.2,1,24.7z M29.9,35.2
			c-0.3,0.2-0.6,0.3-0.7,0.4c-0.8,0.6-1.7,1-2.7,1.4c-1.8,0.9-3.8,1.4-5.8,1.8C17,39.5,12.6,39.1,9.4,37c-2.2-1.6-4.1-3.7-5.3-6
			c-0.6-1.1-1-2.3-1.4-3.6c0-0.3-0.1-0.6-0.1-0.8c-0.2-0.4,0-0.9,0.3-1c0.4-0.1,0.9-0.3,1.3-0.4S5,25,5.4,24.9
			c1.3-0.3,1-0.1,1.6,1.3c1.3,3.8,4.2,6.8,8,8.1c6,2,12-1,13.3-1.7c0.2-0.1,0.6,0,0.8,0.2c0.1,0.1,0.7,0.9,1,1.4
			C30.4,34.4,30.3,34.9,29.9,35.2z M34.8,32.4l-3,2c-0.2,0.2-0.7,0.1-0.9-0.1l-1.2-1.9c-0.2-0.2-0.1-0.7,0.1-0.9l3-2
			c0.2-0.2,0.7-0.1,0.9,0.1l1.2,1.8C35.2,31.9,35.1,32.2,34.8,32.4z"/>
		<path class="st17" d="M5.3,20.6c0-0.2-0.1-0.4-0.4-0.4c-0.8-0.1-1.4-0.2-2.2-0.3c-0.7-0.1-0.8,0-0.9,0.7c0,0.3,0,0.8,0,1.1v1.1
			c0,0,0,0,0,0.1c0,0.7,0.2,0.8,0.9,0.7c0.8-0.1,1.4-0.2,2.2-0.3c0.2,0,0.3-0.1,0.3-0.3C5.3,22.2,5.3,21.4,5.3,20.6z M4.9,22.4
			c0,0.1-0.1,0.2-0.2,0.2c-0.3,0-0.8,0.1-1.1,0.1s-0.4,0-0.4-0.3v-0.6c0-0.2,0-0.3,0-0.6C3.1,21,3.2,21,3.5,21
			c0.3,0.1,0.8,0.1,1.1,0.1c0.1,0,0.2,0.1,0.2,0.2C4.9,21.5,4.9,22.1,4.9,22.4z"/>
	</g>
</g>
</svg>
